# 
g hex_cut_v2_arya

v -0.500000 -0.866025 0.153854
v -0.000000 -0.297878 -0.349461
v -0.000000 -0.000000 -0.562995
v -0.257970 -0.148939 -0.349461
v -1.000000 -0.000000 0.153854
v -0.257970 0.148939 -0.349461
v -0.500000 0.866025 0.153854
v -0.000000 0.297878 -0.349461
v 0.500000 0.866025 0.153854
v 0.257970 0.148939 -0.349461
v 1.000000 -0.000000 0.153854
v 0.257970 -0.148939 -0.349461
v 0.500000 -0.866025 0.153854
v -0.500000 -0.866025 0.203895
v 0.500000 -0.866025 0.203895
v -1.000000 -0.000000 0.203895
v -0.500000 0.866025 0.203895
v 0.500000 0.866025 0.203895
v 1.000000 -0.000000 0.203895
v -0.000000 -0.772086 0.338392
v 0.488770 -0.862856 0.208433
v -0.488770 -0.862856 0.208433
v 0.668647 -0.386043 0.338392
v 0.991640 -0.008141 0.208433
v 0.502870 -0.854716 0.208433
v 0.668647 0.386043 0.338392
v 0.502870 0.854716 0.208433
v 0.991641 0.008141 0.208433
v -0.000000 0.772086 0.338392
v -0.488770 0.862856 0.208433
v 0.488770 0.862856 0.208433
v -0.668647 0.386043 0.338392
v -0.991640 0.008141 0.208433
v -0.502870 0.854716 0.208433
v -0.668647 -0.386043 0.338392
v -0.502870 -0.854716 0.208433
v -0.991641 -0.008141 0.208433
v 0.325366 -0.763951 0.299275
v 0.166215 -0.671663 0.384958
v 0.498918 -0.663770 0.299266
v 0.498570 -0.479778 0.384959
v 0.664785 -0.191885 0.384958
v 0.824300 -0.100191 0.299266
v 0.824301 0.100191 0.299266
v 0.664785 0.191885 0.384959
v 0.498570 0.479778 0.384958
v 0.498918 0.663769 0.299266
v 0.325383 0.763961 0.299266
v 0.166215 0.671663 0.384959
v -0.166215 0.671663 0.384958
v -0.325382 0.763960 0.299266
v -0.498918 0.663770 0.299266
v -0.498570 0.479778 0.384959
v -0.664785 0.191885 0.384958
v -0.824300 0.100191 0.299266
v -0.824301 -0.100191 0.299266
v -0.664785 -0.191885 0.384959
v -0.498570 -0.479778 0.384958
v -0.498918 -0.663769 0.299266
v -0.325367 -0.763952 0.299274
v -0.166215 -0.671663 0.384958
v -0.000000 -0.385224 0.517782
v 0.167299 -0.480911 0.473411
v -0.167299 -0.480911 0.473411
v 0.333613 -0.192612 0.517782
v 0.500131 -0.095570 0.473411
v 0.332832 -0.385341 0.473411
v 0.332832 0.385341 0.473411
v 0.500131 0.095571 0.473411
v 0.333613 0.192612 0.517782
v -0.167299 0.480911 0.473411
v 0.167299 0.480911 0.473411
v 0.000000 0.385224 0.517782
v -0.500131 0.095570 0.473411
v -0.332832 0.385341 0.473411
v -0.333614 0.192612 0.517782
v -0.332832 -0.385341 0.473411
v -0.500131 -0.095571 0.473411
v -0.333613 -0.192612 0.517782
v 0.163935 -0.094648 0.562995
v -0.000000 -0.189296 0.562995
v 0.163935 0.094648 0.562995
v 0.000000 0.189296 0.562995
v -0.163935 0.094648 0.562995
v -0.163935 -0.094648 0.562995

f 1 2 3
f 1 3 4
f 5 4 3
f 5 3 6
f 7 6 3
f 7 3 8
f 9 8 3
f 9 3 10
f 11 10 3
f 11 3 12
f 13 12 3
f 13 3 2
f 14 15 13
f 14 13 1
f 14 1 5
f 14 5 16
f 16 5 7
f 16 7 17
f 17 7 9
f 17 9 18
f 18 9 11
f 18 11 19
f 19 11 13
f 19 13 15
f 13 2 1
f 5 1 4
f 7 5 6
f 9 7 8
f 11 9 10
f 11 12 13
f 20 21 15
f 20 15 14
f 20 14 22
f 23 24 19
f 23 19 15
f 23 15 25
f 26 27 18
f 26 18 19
f 26 19 28
f 29 30 17
f 29 17 18
f 29 18 31
f 32 33 16
f 32 16 17
f 32 17 34
f 35 36 14
f 35 14 16
f 35 16 37
f 38 21 20
f 38 20 39
f 40 41 23
f 40 23 25
f 42 43 24
f 42 24 23
f 44 45 26
f 44 26 28
f 46 47 27
f 46 27 26
f 48 49 29
f 48 29 31
f 50 51 30
f 50 30 29
f 52 53 32
f 52 32 34
f 54 55 33
f 54 33 32
f 56 57 35
f 56 35 37
f 58 59 36
f 58 36 35
f 60 61 20
f 60 20 22
f 40 25 15
f 40 15 21
f 40 21 38
f 44 28 19
f 44 19 24
f 44 24 43
f 48 31 18
f 48 18 27
f 48 27 47
f 52 34 17
f 52 17 30
f 52 30 51
f 56 37 16
f 56 16 33
f 56 33 55
f 60 22 14
f 60 14 36
f 60 36 59
f 62 63 39
f 62 39 20
f 62 20 61
f 62 61 64
f 65 66 42
f 65 42 23
f 65 23 41
f 65 41 67
f 68 46 26
f 68 26 45
f 68 45 69
f 68 69 70
f 71 50 29
f 71 29 49
f 71 49 72
f 71 72 73
f 74 54 32
f 74 32 53
f 74 53 75
f 74 75 76
f 77 58 35
f 77 35 57
f 77 57 78
f 77 78 79
f 63 67 41
f 63 41 40
f 63 40 38
f 63 38 39
f 66 69 45
f 66 45 44
f 66 44 43
f 66 43 42
f 68 72 49
f 68 49 48
f 68 48 47
f 68 47 46
f 71 75 53
f 71 53 52
f 71 52 51
f 71 51 50
f 74 78 57
f 74 57 56
f 74 56 55
f 74 55 54
f 77 64 61
f 77 61 60
f 77 60 59
f 77 59 58
f 80 65 67
f 80 67 63
f 80 63 62
f 80 62 81
f 82 70 69
f 82 69 66
f 82 66 65
f 82 65 80
f 83 73 72
f 83 72 68
f 83 68 70
f 83 70 82
f 84 76 75
f 84 75 71
f 84 71 73
f 84 73 83
f 84 85 79
f 84 79 78
f 84 78 74
f 84 74 76
f 85 81 62
f 85 62 64
f 85 64 77
f 85 77 79
f 80 81 85
f 80 85 84
f 80 84 83
f 80 83 82

