# Exported from GemCutStudio
# 
g toby_oval

v -0.159602 -0.667856 0.083185
v 0.000000 -0.000000 -0.560148
v -0.456070 -0.567219 0.083185
v -0.159602 0.667856 0.083185
v -0.456070 0.567219 0.083185
v 0.159602 0.667856 0.083185
v 0.456070 0.567219 0.083185
v 0.159602 -0.667856 0.083185
v 0.456070 -0.567219 0.083185
v -0.794451 -0.270467 0.083185
v -0.794451 0.270467 0.083185
v 0.794451 0.270467 0.083185
v 0.794451 -0.270467 0.083185
v -1.000000 0.000000 0.249636
v 1.000000 0.000000 0.249636
v 0.176068 -0.736756 0.302242
v 0.176068 -0.736756 0.249636
v -0.176068 -0.736756 0.249636
v -0.176068 -0.736756 0.302242
v -0.175844 -0.736756 0.302303
v -0.174881 -0.736756 0.302499
v 0.174881 -0.736756 0.302499
v 0.175844 -0.736756 0.302303
v 0.176068 0.736756 0.249636
v 0.176068 0.736756 0.302242
v 0.175844 0.736756 0.302303
v 0.174881 0.736756 0.302499
v -0.174881 0.736756 0.302499
v -0.175844 0.736756 0.302303
v -0.176068 0.736756 0.302242
v -0.176068 0.736756 0.249636
v -0.503121 -0.625737 0.249636
v -0.503121 -0.625737 0.302242
v -0.503121 0.625737 0.302242
v -0.503121 0.625737 0.249636
v 0.503121 0.625737 0.249636
v 0.503121 0.625737 0.302242
v 0.503121 -0.625737 0.302242
v 0.503121 -0.625737 0.249636
v -0.876411 -0.298370 0.249636
v -0.876411 -0.298370 0.300713
v -0.859755 -0.312978 0.302499
v -0.503718 -0.625214 0.302499
v -0.503718 0.625214 0.302499
v -0.859755 0.312978 0.302499
v -0.876411 0.298370 0.300713
v -0.876411 0.298370 0.249636
v 0.876411 0.298370 0.249636
v 0.876411 0.298370 0.300713
v 0.859755 0.312978 0.302499
v 0.503718 0.625214 0.302499
v 0.503718 -0.625214 0.302499
v 0.859755 -0.312978 0.302499
v 0.876411 -0.298370 0.300713
v 0.876411 -0.298370 0.249636
v -1.000000 0.000000 0.302499
v -0.879854 -0.290059 0.302499
v -0.879854 0.290059 0.302499
v 1.000000 0.000000 0.302499
v 0.879854 0.290059 0.302499
v 0.879854 -0.290059 0.302499
v 0.000000 -0.455290 0.552212
v 0.000000 0.455290 0.552212
v 0.348678 -0.453789 0.482295
v 0.349837 -0.453666 0.482078
v 0.353154 -0.455280 0.479880
v 0.353154 0.455280 0.479880
v 0.349837 0.453666 0.482078
v 0.348678 0.453789 0.482295
v -0.348678 0.453789 0.482295
v -0.349837 0.453666 0.482078
v -0.353154 0.455280 0.479880
v -0.353154 -0.455280 0.479880
v -0.349837 -0.453666 0.482078
v -0.348678 -0.453789 0.482295
v 0.575454 -0.004783 0.560148
v 0.577435 0.000000 0.560148
v 0.575454 0.004783 0.560148
v -0.575454 0.004783 0.560148
v -0.577435 0.000000 0.560148
v -0.575454 -0.004783 0.560148
v 0.000000 -0.444855 0.560148
v 0.002982 -0.444056 0.560148
v 0.002982 0.444056 0.560148
v 0.000000 0.444855 0.560148
v -0.002982 0.444056 0.560148
v -0.002982 -0.444056 0.560148

f 1 2 3
f 2 4 5
f 6 2 7
f 2 8 9
f 8 2 1
f 2 6 4
f 3 2 10
f 2 5 11
f 7 2 12
f 2 9 13
f 2 11 14
f 2 14 10
f 12 2 13
f 12 13 15
f 16 17 18
f 16 18 19
f 16 19 20
f 16 20 21
f 16 21 22
f 16 22 23
f 24 25 26
f 24 26 27
f 24 27 28
f 24 28 29
f 24 29 30
f 24 30 31
f 19 18 32
f 19 32 33
f 31 30 34
f 31 34 35
f 25 24 36
f 25 36 37
f 17 16 38
f 17 38 39
f 33 32 40
f 33 40 41
f 33 41 42
f 33 42 43
f 35 34 44
f 35 44 45
f 35 45 46
f 35 46 47
f 37 36 48
f 37 48 49
f 37 49 50
f 37 50 51
f 39 38 52
f 39 52 53
f 39 53 54
f 39 54 55
f 41 40 14
f 41 14 56
f 41 56 57
f 47 46 58
f 47 58 56
f 47 56 14
f 49 48 15
f 49 15 59
f 49 59 60
f 55 54 61
f 55 61 59
f 55 59 15
f 10 14 40
f 14 11 47
f 12 15 48
f 15 13 55
f 3 10 40
f 3 40 32
f 11 5 35
f 11 35 47
f 7 12 48
f 7 48 36
f 13 9 39
f 13 39 55
f 1 3 32
f 1 32 18
f 5 4 31
f 5 31 35
f 6 7 36
f 6 36 24
f 9 8 17
f 9 17 39
f 8 1 18
f 8 18 17
f 4 6 24
f 4 24 31
f 22 21 62
f 28 27 63
f 16 23 64
f 16 64 65
f 16 65 66
f 16 66 52
f 16 52 38
f 26 25 37
f 26 37 51
f 26 51 67
f 26 67 68
f 26 68 69
f 30 29 70
f 30 70 71
f 30 71 72
f 30 72 44
f 30 44 34
f 20 19 33
f 20 33 43
f 20 43 73
f 20 73 74
f 20 74 75
f 53 52 66
f 51 50 67
f 45 44 72
f 43 42 73
f 59 61 76
f 59 76 77
f 60 59 77
f 60 77 78
f 56 58 79
f 56 79 80
f 57 56 80
f 57 80 81
f 23 22 62
f 23 62 82
f 23 82 83
f 23 83 64
f 27 26 69
f 27 69 84
f 27 84 85
f 27 85 63
f 29 28 63
f 29 63 85
f 29 85 86
f 29 86 70
f 21 20 75
f 21 75 87
f 21 87 82
f 21 82 62
f 54 53 66
f 54 66 65
f 54 65 76
f 54 76 61
f 50 49 60
f 50 60 78
f 50 78 68
f 50 68 67
f 46 45 72
f 46 72 71
f 46 71 79
f 46 79 58
f 42 41 57
f 42 57 81
f 42 81 74
f 42 74 73
f 65 64 83
f 65 83 76
f 69 68 78
f 69 78 84
f 71 70 86
f 71 86 79
f 75 74 81
f 75 81 87
f 81 80 79
f 81 79 86
f 81 86 85
f 81 85 84
f 81 84 78
f 81 78 77
f 81 77 76
f 81 76 83
f 81 83 82
f 81 82 87

