<svg xmlns="http://www.w3.org/2000/svg" viewBox="0 0 256 256" stroke="#2e3440" stroke-width="20" stroke-linejoin="round"><path id="lw" d="M43 199c-11-8-24-20-22-35 8-54 190-46 197-96 1-8-4-15-8-22 99 65-155 94-143 146 5 17 25 24 40 29-21-4-52-10-61-32-20-50 169-64 180-110 1-4 1-8 0-11-4 58-235 59-183 131zM128 224c-14-4-59-20-50-40 14-30 127-59 153-90 7-8 8-18 6-28 5 9 5 20 0 29-18 28-137 72-137 97 1 14 18 24 28 32z" fill="#fff"/><path d="M64 32h128l48 64-112 128L16 96z" fill="#8fbcbb" paint-order="stroke"/><path d="M16 96h224M64 32l32 64 32-64 32 64 32-64M96 96l32 128 32-128" fill="none" stroke-width="10"/><path d="M43 199c-10-7-22-18-22-32 0-55 179-49 198-92 5-11-4-20-9-29 96 65-151 92-143 144 3 18 25 26 40 31-19-5-56-12-62-35-11-46 159-60 180-104 1-3 3-8 2-12-4 9-9 17-17 22-20 14-48 21-72 29-28 9-129 30-95 78z" fill="#2e3440" stroke-width="0"/><use href="#lw" stroke-width="0"/></svg>